<svg width="91" height="90" viewBox="0 0 91 90" fill="none" xmlns="http://www.w3.org/2000/svg">
<rect width="91" height="90" rx="45" fill="#212226" fill-opacity="0.6"/>
<path fill-rule="evenodd" clip-rule="evenodd" d="M29.319 23.2687C29.3723 23.2478 29.4266 23.2291 29.4816 23.2126C29.6964 23.148 29.9142 23.1199 30.128 23.125H57.872C58.0852 23.12 58.3023 23.1479 58.5164 23.212C58.5721 23.2286 58.627 23.2475 58.681 23.2687C59.1421 23.4492 59.5045 23.7779 59.7326 24.1805L67.6636 37.9935C67.8277 38.2676 67.9306 38.5825 67.9535 38.9194C67.9557 38.9521 67.9572 38.9848 67.9579 39.0174C67.9586 39.0486 67.9585 39.0798 67.9578 39.1109C67.9464 39.611 67.7587 40.0676 67.4545 40.421L45.6012 66.1247C45.5454 66.1916 45.4857 66.2548 45.4223 66.3139C45.315 66.4141 45.1975 66.5027 45.0718 66.5781C44.7552 66.7681 44.3868 66.875 44 66.875C43.369 66.875 42.7871 66.5907 42.399 66.1248L20.5456 40.4211C20.2412 40.0676 20.0535 39.6107 20.0422 39.1103C20.0411 39.0626 20.0416 39.0148 20.0438 38.967C20.0598 38.6122 20.1646 38.2805 20.3364 37.9935L28.2673 24.1806C28.4954 23.778 28.8579 23.4492 29.319 23.2687ZM40.1742 27.2916H33.0206L35.5424 34.4623L40.1742 27.2916ZM38.877 36.9791H49.123L44 29.0479L38.877 36.9791ZM52.4576 34.4623L47.8259 27.2916H54.9794L52.4576 34.4623ZM58.3775 30.1883L62.2765 36.9791H55.9894L58.3775 30.1883ZM44 58.5119L50.1072 41.1458H37.8928L44 58.5119ZM29.6225 30.1883L32.0107 36.9791H25.7235L29.6225 30.1883ZM33.476 41.1458H26.6308L38.3047 54.8766L33.476 41.1458ZM61.3692 41.1458H54.5241L49.6953 54.8766L61.3692 41.1458Z" fill="#15CDCB"/>
</svg>
