<svg width="155" height="46" viewBox="0 0 155 46" fill="none" xmlns="http://www.w3.org/2000/svg">
<path d="M15.032 18.224H20.888V20H12.848V3.272H15.032V18.224ZM34.8714 6.848V20H32.6874V18.056C32.2714 18.728 31.6874 19.256 30.9354 19.64C30.1994 20.008 29.3834 20.192 28.4874 20.192C27.4634 20.192 26.5434 19.984 25.7274 19.568C24.9114 19.136 24.2634 18.496 23.7834 17.648C23.3194 16.8 23.0874 15.768 23.0874 14.552V6.848H25.2474V14.264C25.2474 15.56 25.5754 16.56 26.2314 17.264C26.8874 17.952 27.7834 18.296 28.9194 18.296C30.0874 18.296 31.0074 17.936 31.6794 17.216C32.3514 16.496 32.6874 15.448 32.6874 14.072V6.848H34.8714ZM37.7429 13.4C37.7429 12.04 38.0149 10.856 38.5589 9.848C39.1029 8.824 39.8549 8.032 40.8149 7.472C41.7909 6.912 42.9029 6.632 44.1509 6.632C45.7669 6.632 47.0949 7.024 48.1349 7.808C49.1909 8.592 49.8869 9.68 50.2229 11.072H47.8709C47.6469 10.272 47.2069 9.64 46.5509 9.176C45.9109 8.712 45.1109 8.48 44.1509 8.48C42.9029 8.48 41.8949 8.912 41.1269 9.776C40.3589 10.624 39.9749 11.832 39.9749 13.4C39.9749 14.984 40.3589 16.208 41.1269 17.072C41.8949 17.936 42.9029 18.368 44.1509 18.368C45.1109 18.368 45.9109 18.144 46.5509 17.696C47.1909 17.248 47.6309 16.608 47.8709 15.776H50.2229C49.8709 17.12 49.1669 18.2 48.1109 19.016C47.0549 19.816 45.7349 20.216 44.1509 20.216C42.9029 20.216 41.7909 19.936 40.8149 19.376C39.8549 18.816 39.1029 18.024 38.5589 17C38.0149 15.976 37.7429 14.776 37.7429 13.4ZM52.3211 13.376C52.3211 12.032 52.5931 10.856 53.1371 9.848C53.6811 8.824 54.4251 8.032 55.3691 7.472C56.3291 6.912 57.3931 6.632 58.5611 6.632C59.7131 6.632 60.7131 6.88 61.5611 7.376C62.4091 7.872 63.0411 8.496 63.4571 9.248V6.848H65.6651V20H63.4571V17.552C63.0251 18.32 62.3771 18.96 61.5131 19.472C60.6651 19.968 59.6731 20.216 58.5371 20.216C57.3691 20.216 56.3131 19.928 55.3691 19.352C54.4251 18.776 53.6811 17.968 53.1371 16.928C52.5931 15.888 52.3211 14.704 52.3211 13.376ZM63.4571 13.4C63.4571 12.408 63.2571 11.544 62.8571 10.808C62.4571 10.072 61.9131 9.512 61.2251 9.128C60.5531 8.728 59.8091 8.528 58.9931 8.528C58.1771 8.528 57.4331 8.72 56.7611 9.104C56.0891 9.488 55.5531 10.048 55.1531 10.784C54.7531 11.52 54.5531 12.384 54.5531 13.376C54.5531 14.384 54.7531 15.264 55.1531 16.016C55.5531 16.752 56.0891 17.32 56.7611 17.72C57.4331 18.104 58.1771 18.296 58.9931 18.296C59.8091 18.296 60.5531 18.104 61.2251 17.72C61.9131 17.32 62.4571 16.752 62.8571 16.016C63.2571 15.264 63.4571 14.392 63.4571 13.4ZM74.0118 20.216C73.0038 20.216 72.0998 20.048 71.2998 19.712C70.4998 19.36 69.8678 18.88 69.4038 18.272C68.9398 17.648 68.6838 16.936 68.6358 16.136H70.8918C70.9558 16.792 71.2598 17.328 71.8038 17.744C72.3638 18.16 73.0918 18.368 73.9878 18.368C74.8198 18.368 75.4758 18.184 75.9558 17.816C76.4358 17.448 76.6758 16.984 76.6758 16.424C76.6758 15.848 76.4198 15.424 75.9078 15.152C75.3958 14.864 74.6038 14.584 73.5318 14.312C72.5558 14.056 71.7558 13.8 71.1318 13.544C70.5238 13.272 69.9958 12.88 69.5478 12.368C69.1158 11.84 68.8998 11.152 68.8998 10.304C68.8998 9.632 69.0998 9.016 69.4998 8.456C69.8998 7.896 70.4678 7.456 71.2038 7.136C71.9398 6.8 72.7798 6.632 73.7238 6.632C75.1798 6.632 76.3558 7 77.2518 7.736C78.1478 8.472 78.6278 9.48 78.6918 10.76H76.5078C76.4598 10.072 76.1798 9.52 75.6678 9.104C75.1718 8.688 74.4998 8.48 73.6518 8.48C72.8678 8.48 72.2438 8.648 71.7798 8.984C71.3158 9.32 71.0838 9.76 71.0838 10.304C71.0838 10.736 71.2198 11.096 71.4918 11.384C71.7798 11.656 72.1318 11.88 72.5478 12.056C72.9798 12.216 73.5718 12.4 74.3238 12.608C75.2678 12.864 76.0358 13.12 76.6278 13.376C77.2198 13.616 77.7238 13.984 78.1398 14.48C78.5718 14.976 78.7958 15.624 78.8118 16.424C78.8118 17.144 78.6118 17.792 78.2118 18.368C77.8118 18.944 77.2438 19.4 76.5078 19.736C75.7878 20.056 74.9558 20.216 74.0118 20.216ZM35.1009 24.272V26.048H27.8289V31.688H33.7329V33.464H27.8289V41H25.6449V24.272H35.1009ZM39.9226 29.984C40.3066 29.232 40.8506 28.648 41.5546 28.232C42.2746 27.816 43.1466 27.608 44.1706 27.608V29.864H43.5946C41.1466 29.864 39.9226 31.192 39.9226 33.848V41H37.7386V27.848H39.9226V29.984ZM58.6918 33.92C58.6918 34.336 58.6678 34.776 58.6198 35.24H48.1078C48.1878 36.536 48.6278 37.552 49.4278 38.288C50.2438 39.008 51.2278 39.368 52.3798 39.368C53.3238 39.368 54.1078 39.152 54.7318 38.72C55.3718 38.272 55.8198 37.68 56.0758 36.944H58.4278C58.0758 38.208 57.3718 39.24 56.3158 40.04C55.2598 40.824 53.9478 41.216 52.3798 41.216C51.1318 41.216 50.0118 40.936 49.0198 40.376C48.0438 39.816 47.2758 39.024 46.7158 38C46.1558 36.96 45.8758 35.76 45.8758 34.4C45.8758 33.04 46.1478 31.848 46.6918 30.824C47.2358 29.8 47.9958 29.016 48.9718 28.472C49.9638 27.912 51.0998 27.632 52.3798 27.632C53.6278 27.632 54.7318 27.904 55.6918 28.448C56.6518 28.992 57.3878 29.744 57.8998 30.704C58.4278 31.648 58.6918 32.72 58.6918 33.92ZM56.4358 33.464C56.4358 32.632 56.2518 31.92 55.8838 31.328C55.5158 30.72 55.0118 30.264 54.3718 29.96C53.7478 29.64 53.0518 29.48 52.2838 29.48C51.1798 29.48 50.2358 29.832 49.4518 30.536C48.6838 31.24 48.2438 32.216 48.1318 33.464H56.4358ZM62.7026 25.712C62.2866 25.712 61.9346 25.568 61.6466 25.28C61.3586 24.992 61.2146 24.64 61.2146 24.224C61.2146 23.808 61.3586 23.456 61.6466 23.168C61.9346 22.88 62.2866 22.736 62.7026 22.736C63.1026 22.736 63.4386 22.88 63.7106 23.168C63.9986 23.456 64.1426 23.808 64.1426 24.224C64.1426 24.64 63.9986 24.992 63.7106 25.28C63.4386 25.568 63.1026 25.712 62.7026 25.712ZM63.7586 27.848V41H61.5746V27.848H63.7586ZM70.1448 29.648V37.4C70.1448 38.04 70.2808 38.496 70.5528 38.768C70.8248 39.024 71.2968 39.152 71.9688 39.152H73.5768V41H71.6088C70.3928 41 69.4808 40.72 68.8728 40.16C68.2648 39.6 67.9608 38.68 67.9608 37.4V29.648H66.2568V27.848H67.9608V24.536H70.1448V27.848H73.5768V29.648H70.1448ZM75.407 34.376C75.407 33.032 75.679 31.856 76.223 30.848C76.767 29.824 77.511 29.032 78.455 28.472C79.415 27.912 80.479 27.632 81.647 27.632C82.799 27.632 83.799 27.88 84.647 28.376C85.495 28.872 86.127 29.496 86.543 30.248V27.848H88.751V41H86.543V38.552C86.111 39.32 85.463 39.96 84.599 40.472C83.751 40.968 82.759 41.216 81.623 41.216C80.455 41.216 79.399 40.928 78.455 40.352C77.511 39.776 76.767 38.968 76.223 37.928C75.679 36.888 75.407 35.704 75.407 34.376ZM86.543 34.4C86.543 33.408 86.343 32.544 85.943 31.808C85.543 31.072 84.999 30.512 84.311 30.128C83.639 29.728 82.895 29.528 82.079 29.528C81.263 29.528 80.519 29.72 79.847 30.104C79.175 30.488 78.639 31.048 78.239 31.784C77.839 32.52 77.639 33.384 77.639 34.376C77.639 35.384 77.839 36.264 78.239 37.016C78.639 37.752 79.175 38.32 79.847 38.72C80.519 39.104 81.263 39.296 82.079 39.296C82.895 39.296 83.639 39.104 84.311 38.72C84.999 38.32 85.543 37.752 85.943 37.016C86.343 36.264 86.543 35.392 86.543 34.4ZM97.0978 41.216C96.0898 41.216 95.1858 41.048 94.3858 40.712C93.5858 40.36 92.9538 39.88 92.4898 39.272C92.0258 38.648 91.7698 37.936 91.7218 37.136H93.9778C94.0418 37.792 94.3458 38.328 94.8898 38.744C95.4498 39.16 96.1778 39.368 97.0738 39.368C97.9058 39.368 98.5618 39.184 99.0418 38.816C99.5218 38.448 99.7618 37.984 99.7618 37.424C99.7618 36.848 99.5058 36.424 98.9938 36.152C98.4818 35.864 97.6898 35.584 96.6178 35.312C95.6418 35.056 94.8418 34.8 94.2178 34.544C93.6098 34.272 93.0818 33.88 92.6338 33.368C92.2018 32.84 91.9858 32.152 91.9858 31.304C91.9858 30.632 92.1858 30.016 92.5858 29.456C92.9858 28.896 93.5538 28.456 94.2898 28.136C95.0258 27.8 95.8658 27.632 96.8098 27.632C98.2658 27.632 99.4418 28 100.338 28.736C101.234 29.472 101.714 30.48 101.778 31.76H99.5938C99.5458 31.072 99.2658 30.52 98.7538 30.104C98.2578 29.688 97.5858 29.48 96.7378 29.48C95.9538 29.48 95.3298 29.648 94.8658 29.984C94.4018 30.32 94.1698 30.76 94.1698 31.304C94.1698 31.736 94.3058 32.096 94.5778 32.384C94.8658 32.656 95.2178 32.88 95.6338 33.056C96.0658 33.216 96.6578 33.4 97.4098 33.608C98.3538 33.864 99.1218 34.12 99.7138 34.376C100.306 34.616 100.81 34.984 101.226 35.48C101.658 35.976 101.882 36.624 101.898 37.424C101.898 38.144 101.698 38.792 101.298 39.368C100.898 39.944 100.33 40.4 99.5938 40.736C98.8738 41.056 98.0418 41.216 97.0978 41.216Z" fill="white"/>
<line x1="2" x2="2" y2="46" stroke="#15CDCB" stroke-width="4"/>
</svg>
